# xmcd
# 
# Track frame offsets:
#     183
#     19565
#     39675
#     81078
#     101110
#     117190
#     136390
#     154705
#     180015
# 
# Disc length: 2646
# 
# Revision: 3
# Processed by: cddbd v1.5.2PL0 Copyright (c) Steve Scherf et al.
# Submitted via: fre:ac v1.0.31
# 
DISCID=640a5409
DTITLE=John Denver - Different Directions
DYEAR=1991
DGENRE=Rock/Pop
TTITLE0=Potter's Wheel
TTITLE1=Ponies
TTITLE2=The Foxfire Suite
TTITLE3=Chained To The Wheel
TTITLE4=Two Different Directions
TTITLE5=Hold On To Me
TTITLE6=The Chosen Ones
TTITLE7=Amazon (Let This Be A Voice)
TTITLE8=Tenderly Calling
EXTD=
EXTT0=
EXTT1=
EXTT2=
EXTT3=
EXTT4=
EXTT5=
EXTT6=
EXTT7=
EXTT8=
PLAYORDER=
